<svg width="108" height="108" viewBox="0 0 108 108" fill="none" xmlns="http://www.w3.org/2000/svg">
<path d="M61.1714 72C60.6831 71.0479 60.3291 69.8638 60.1094 68.4478C57.5459 71.3042 54.2134 72.7324 50.1118 72.7324C46.23 72.7324 43.0073 71.6094 40.4438 69.3633C37.9048 67.1172 36.6353 64.2852 36.6353 60.8672C36.6353 56.668 38.1855 53.4453 41.2861 51.1992C44.4111 48.9531 48.9155 47.8179 54.7993 47.7935H59.6699V45.5229C59.6699 43.6919 59.1938 42.2271 58.2417 41.1284C57.314 40.0298 55.8369 39.4805 53.8105 39.4805C52.0283 39.4805 50.6245 39.9077 49.5991 40.7622C48.5981 41.6167 48.0977 42.7886 48.0977 44.2778H37.5142C37.5142 41.9829 38.2222 39.8589 39.6382 37.9058C41.0542 35.9526 43.0562 34.4268 45.644 33.3281C48.2319 32.2051 51.1372 31.6436 54.3599 31.6436C59.2427 31.6436 63.1123 32.8765 65.9688 35.3423C68.8496 37.7837 70.29 41.2261 70.29 45.6694V62.8447C70.3145 66.6045 70.8394 69.4487 71.8647 71.3774V72H61.1714ZM52.4189 64.6392C53.9814 64.6392 55.4219 64.2974 56.7402 63.6138C58.0586 62.9058 59.0352 61.9658 59.6699 60.7939V53.9824H55.7148C50.417 53.9824 47.5972 55.8135 47.2554 59.4756L47.2188 60.0981C47.2188 61.4165 47.6826 62.5029 48.6104 63.3574C49.5381 64.2119 50.8076 64.6392 52.4189 64.6392Z" fill="url(#paint0_linear)"/>
<circle cx="54" cy="54" r="48.75" stroke="url(#paint1_linear)" stroke-width="10"/>
<defs>
<linearGradient id="paint0_linear" x1="54.25" y1="15" x2="54.25" y2="77.5" gradientUnits="userSpaceOnUse">
<stop stop-color="#FF0000"/>
<stop offset="1" stop-color="#7556FF"/>
</linearGradient>
<linearGradient id="paint1_linear" x1="54" y1="10.25" x2="54" y2="97.75" gradientUnits="userSpaceOnUse">
<stop stop-color="#FF0000"/>
<stop offset="1" stop-color="#7556FF"/>
</linearGradient>
</defs>
</svg>
