<svg width="200" height="200" viewBox="0 0 200 200" fill="none" xmlns="http://www.w3.org/2000/svg">
<rect width="200" height="200" rx="100" fill="#5CB85C"/>
<path d="M136.54 65.0484L84.5959 117.063L63.3858 95.7847L63.3758 95.7746L63.3656 95.7648C62.5371 94.9645 61.5592 94.3352 60.4875 93.9129C59.4158 93.4906 58.2715 93.2834 57.1197 93.3034C55.968 93.3233 54.8315 93.5699 53.7751 94.029C52.7187 94.4882 51.763 95.1509 50.9627 95.9794C50.1624 96.8078 49.5332 97.7858 49.1108 98.8575C48.6885 99.9292 48.4814 101.074 48.5013 102.225C48.5212 103.377 48.7678 104.513 49.227 105.57C49.6843 106.622 50.3436 107.574 51.1675 108.373L78.4779 135.683C78.4787 135.684 78.4794 135.685 78.4801 135.685C79.2806 136.492 80.2327 137.132 81.2816 137.569C82.3315 138.006 83.4576 138.232 84.5949 138.232C85.7323 138.232 86.8584 138.006 87.9083 137.569C88.9571 137.132 89.9091 136.492 90.7095 135.686C90.7103 135.685 90.7111 135.684 90.7119 135.683L148.75 77.6455C149.613 76.8429 150.303 75.8714 150.776 74.7912C151.254 73.7014 151.5 72.5244 151.5 71.3346C151.5 70.1448 151.254 68.9679 150.776 67.878C150.303 66.7983 149.614 65.8273 148.751 65.0248C147.955 64.2284 147.01 63.5957 145.971 63.1626C144.921 62.7252 143.795 62.5 142.657 62.5C141.52 62.5 140.394 62.7252 139.344 63.1626C138.295 63.5997 137.342 64.2402 136.542 65.047C136.541 65.0475 136.541 65.048 136.54 65.0484Z" fill="white" stroke="white" stroke-width="3"/>
</svg>
